# Blender v3.4.0 OBJ File: 'tree.blend'
# www.blender.org
o Plane001
v -713686.812500 -16970.277344 518095.875000
v -713686.812500 -16970.292969 891483.562500
v -265621.625000 -16970.292969 891483.562500
v -265621.625000 -16970.277344 518095.875000
v 182443.578125 -16970.292969 891483.562500
v 182443.578125 -16970.277344 518095.875000
v 630508.812500 -16970.292969 891483.562500
v 630508.812500 -16970.277344 518095.875000
v 1078573.875000 -16970.292969 891483.562500
v 1078573.875000 -16970.277344 518095.875000
v -713686.812500 -16970.259766 144708.265625
v -265621.625000 -16970.259766 144708.265625
v 182443.578125 -16970.259766 144708.265625
v 630508.812500 -16970.259766 144708.265625
v 1078573.875000 -16970.259766 144708.265625
v -713686.812500 -16970.244141 -228679.359375
v -265621.625000 -16970.244141 -228679.359375
v 182443.578125 -16970.244141 -228679.359375
v 630508.812500 -16970.244141 -228679.359375
v 1078573.875000 -16970.244141 -228679.359375
v -713686.812500 -16970.228516 -602066.937500
v -265621.625000 -16970.228516 -602066.937500
v 182443.578125 -16970.228516 -602066.937500
v 630508.812500 -16970.228516 -602066.937500
v 1078573.875000 -16970.228516 -602066.937500
vt 0.000000 0.000000
vt 448065.187500 373387.625000
vt 0.000000 373387.625000
vt 448065.187500 0.000000
vt 896130.375000 373387.625000
vt 896130.375000 0.000000
vt 1344195.500000 373387.625000
vt 1344195.500000 0.000000
vt 1792260.750000 373387.625000
vt 448065.187500 746775.250000
vt 0.000000 746775.250000
vt 896130.375000 746775.250000
vt 1344195.500000 746775.250000
vt 1792260.750000 746775.250000
vt 448065.187500 1120162.875000
vt 0.000000 1120162.875000
vt 896130.375000 1120162.875000
vt 1344195.500000 1120162.875000
vt 1792260.750000 1120162.875000
vt 448065.187500 1493550.500000
vt 0.000000 1493550.500000
vt 896130.375000 1493550.500000
vt 1344195.500000 1493550.500000
vt 1792260.750000 1493550.500000
vt 1792260.750000 0.000000
vn 0.0000 1.0000 0.0000
s 1
f 2/1/1 4/2/1 1/3/1
f 3/4/1 6/5/1 4/2/1
f 5/6/1 8/7/1 6/5/1
f 7/8/1 10/9/1 8/7/1
f 1/3/1 12/10/1 11/11/1
f 4/2/1 13/12/1 12/10/1
f 6/5/1 14/13/1 13/12/1
f 8/7/1 15/14/1 14/13/1
f 11/11/1 17/15/1 16/16/1
f 12/10/1 18/17/1 17/15/1
f 13/12/1 19/18/1 18/17/1
f 14/13/1 20/19/1 19/18/1
f 16/16/1 22/20/1 21/21/1
f 17/15/1 23/22/1 22/20/1
f 18/17/1 24/23/1 23/22/1
f 19/18/1 25/24/1 24/23/1
f 2/1/1 3/4/1 4/2/1
f 3/4/1 5/6/1 6/5/1
f 5/6/1 7/8/1 8/7/1
f 7/8/1 9/25/1 10/9/1
f 1/3/1 4/2/1 12/10/1
f 4/2/1 6/5/1 13/12/1
f 6/5/1 8/7/1 14/13/1
f 8/7/1 10/9/1 15/14/1
f 11/11/1 12/10/1 17/15/1
f 12/10/1 13/12/1 18/17/1
f 13/12/1 14/13/1 19/18/1
f 14/13/1 15/14/1 20/19/1
f 16/16/1 17/15/1 22/20/1
f 17/15/1 18/17/1 23/22/1
f 18/17/1 19/18/1 24/23/1
f 19/18/1 20/19/1 25/24/1
